<svg xmlns="http://www.w3.org/2000/svg" viewBox="0 0 66 66"><path d="M45.87 11.56c-2.04-2.04-4.74-3.16-7.63-3.16s-5.59 1.12-7.62 3.16c-4.2 4.2-4.2 11.05 0 15.25 2.04 2.04 4.74 3.16 7.62 3.16s5.59-1.12 7.63-3.16c4.2-4.21 4.2-11.05 0-15.25zm-1.06 14.19c-1.75 1.75-4.08 2.72-6.56 2.72s-4.81-.97-6.56-2.72c-3.62-3.62-3.62-9.51 0-13.13 1.75-1.75 4.08-2.72 6.56-2.72s4.81.97 6.56 2.72c3.62 3.62 3.62 9.51 0 13.13z" fill="#969696"/><path d="m63.62 39.11-8.96-8.96a3.846 3.846 0 0 0-3.15-1.1l-1.26-1.26c4.14-5.77 3.63-13.87-1.55-19.06-2.79-2.79-6.5-4.33-10.45-4.33S30.59 5.94 27.8 8.73c-5.76 5.76-5.76 15.14 0 20.91 2.88 2.88 6.67 4.32 10.45 4.32 3.02 0 6.04-.94 8.6-2.77l1.26 1.26c-.13 1.16.26 2.32 1.1 3.15l8.96 8.96c.73.73 1.7 1.13 2.73 1.13s2-.4 2.73-1.13a3.872 3.872 0 0 0-.01-5.45zM28.85 28.57c-2.51-2.51-3.89-5.84-3.89-9.39s1.38-6.88 3.89-9.39S34.7 5.9 38.24 5.9s6.88 1.38 9.39 3.89 3.89 5.84 3.89 9.39-1.38 6.88-3.89 9.39c-5.17 5.18-13.6 5.18-18.78 0zM62.56 43.5c-.92.92-2.41.92-3.33 0l-8.96-8.96a2.38 2.38 0 0 1-.63-2.19.735.735 0 0 0-.2-.69l-1.42-1.42c.23-.2.46-.39.67-.61s.41-.45.61-.67l1.42 1.42c.18.18.44.26.69.2.8-.18 1.61.05 2.19.63l8.96 8.96c.45.45.69 1.04.69 1.67s-.24 1.21-.69 1.66z" fill="#969696"/><path d="m17.56 40.6 6.65-7.91 6.65 7.91c.14.17.35.27.57.27h19.11c.41 0 .75-.34.75-.75s-.34-.75-.75-.75H31.78l-5.96-7.09h.71c.41 0 .75-.34.75-.75s-.34-.75-.75-.75H9.22c-.22 0-.43.1-.57.27l-7.22 8.59c-.19.22-.23.53-.11.8.12.26.39.43.68.43h14.99c.22 0 .43-.1.57-.27zM3.61 39.37l5.96-7.09H22.6l-5.96 7.09H3.61zm31.97 14.29h-7.84c-.41 0-.75.34-.75.75s.34.75.75.75h7.84c.41 0 .75-.34.75-.75s-.34-.75-.75-.75zm0 2.91h-7.84c-.41 0-.75.34-.75.75s.34.75.75.75h7.84c.41 0 .75-.34.75-.75s-.34-.75-.75-.75zm6.19-40.92a.754.754 0 0 0-1.06 0l-2.47 2.47-2.47-2.47c-.29-.29-.77-.29-1.06 0s-.29.77 0 1.06l2.47 2.47-2.47 2.47c-.29.29-.29.77 0 1.06.15.15.34.22.53.22s.38-.07.53-.22l2.47-2.47 2.47 2.47c.15.15.34.22.53.22s.38-.07.53-.22c.29-.29.29-.77 0-1.06l-2.47-2.47 2.47-2.47c.3-.29.3-.77 0-1.06z" fill="#969696"/><path d="M50.83 42.37c-.41 0-.75.34-.75.75V60.1H24.96V36.18c0-.41-.34-.75-.75-.75s-.75.34-.75.75V60.1H9.97V43.12c0-.41-.34-.75-.75-.75s-.75.34-.75.75v17.74c0 .41.34.75.75.75h41.6c.41 0 .75-.34.75-.75V43.12a.734.734 0 0 0-.74-.75z" fill="#969696"/></svg>